<?xml version="1.0" standalone="no"?>
<!DOCTYPE svg PUBLIC "-//W3C//DTD SVG 20010904//EN"
 "http://www.w3.org/TR/2001/REC-SVG-20010904/DTD/svg10.dtd">
<svg version="1.0" xmlns="http://www.w3.org/2000/svg"
 width="370.000000pt" height="370.000000pt" viewBox="0 0 370.000000 370.000000"
 preserveAspectRatio="xMidYMid meet">

<g transform="translate(0.000000,370.000000) scale(0.100000,-0.100000)"
fill="#e2e2e2" stroke="none">
<path d="M782 3690 c-128 -19 -254 -118 -315 -247 l-32 -68 0 -1525 0 -1525
32 -68 c65 -136 188 -229 329 -248 90 -11 2018 -11 2108 0 141 19 264 112 329
248 l32 68 3 418 3 418 -140 -122 -141 -122 0 -261 c0 -301 -3 -314 -80 -353
l-44 -23 -1016 0 -1016 0 -44 23 c-87 43 -80 -97 -80 1547 0 1365 1 1457 18
1489 9 19 30 44 45 55 28 21 32 21 1077 21 1045 0 1049 0 1077 -21 59 -43 63
-63 63 -350 l0 -261 135 -116 c74 -64 137 -117 140 -117 3 0 5 186 3 413 l-3
412 -32 68 c-63 134 -186 227 -324 247 -77 11 -2050 11 -2127 0z"/>
<path d="M2319 2752 l-34 -30 -3 -226 -3 -226 -452 0 -452 0 -37 -30 c-23 -19
-41 -45 -48 -68 -13 -49 -13 -595 0 -644 7 -23 25 -49 48 -68 l37 -30 452 0
453 0 0 -197 c0 -217 8 -265 47 -290 64 -42 48 -53 610 435 287 248 525 456
529 463 8 14 -31 52 -226 220 -74 64 -289 250 -478 413 -381 331 -383 332
-443 278z"/>
</g>
</svg>
